<svg width="119" height="58" viewBox="0 0 119 58" fill="none" xmlns="http://www.w3.org/2000/svg">
<path d="M21.578 35.0645L3.36328 25.2285V31.4751L21.578 41.311V35.0645Z" fill="url(#paint0_linear_655_1044)"/>
<path d="M21.578 35.0645L3.36328 25.2285V31.4751L21.578 41.311V35.0645Z" fill="url(#paint1_linear_655_1044)"/>
<path d="M21.6684 13L3.36328 25.2277V31.4743L21.6684 19.2465V13Z" fill="url(#paint2_linear_655_1044)"/>
<path d="M21.6684 13L3.36328 25.2277V31.4743L21.6684 19.2465V13Z" fill="url(#paint3_linear_655_1044)"/>
<path d="M0 41.19H11.0254L0 33.2051V41.19Z" fill="#1B2431"/>
<path d="M0 41.19H11.0254L0 33.2051V41.19Z" fill="url(#paint4_linear_655_1044)"/>
<path d="M0 41.19H11.0254L0 33.2051V41.19Z" fill="url(#paint5_linear_655_1044)"/>
<path d="M0 41.19H11.0254L0 33.2051V41.19Z" fill="url(#paint6_linear_655_1044)"/>
<path d="M0 13.0009L13.2304 13.0009L0 22.5586L0 13.0009Z" fill="black"/>
<path d="M0 13.0009L13.2304 13.0009L0 22.5586L0 13.0009Z" fill="url(#paint7_linear_655_1044)"/>
<path d="M0 13.0009L13.2304 13.0009L0 22.5586L0 13.0009Z" fill="url(#paint8_linear_655_1044)"/>
<path d="M0 13.0009L13.2304 13.0009L0 22.5586L0 13.0009Z" fill="url(#paint9_linear_655_1044)"/>
<path d="M32.5698 35.5947H43.1641V39H28.6486V16.7107H32.5698V35.5947ZM47.7612 21.0104C47.3255 21.0104 46.9127 20.9072 46.5229 20.7008C46.156 20.4715 45.8579 20.1734 45.6286 19.8065C45.3993 19.4166 45.2846 19.0039 45.2846 18.5682C45.2846 18.1325 45.3993 17.7312 45.6286 17.3643C45.8579 16.9745 46.156 16.6649 46.5229 16.4356C46.9127 16.2063 47.3255 16.0916 47.7612 16.0916C48.2198 16.0916 48.6441 16.2063 49.0339 16.4356C49.4237 16.6649 49.7333 16.9745 49.9626 17.3643C50.1919 17.7312 50.3066 18.1325 50.3066 18.5682C50.3066 19.0039 50.1919 19.4166 49.9626 19.8065C49.7333 20.1734 49.4237 20.4715 49.0339 20.7008C48.6441 20.9072 48.2198 21.0104 47.7612 21.0104ZM45.9726 39V23.7965L49.6874 23.4182V39H45.9726ZM63.2831 23.2806C64.7737 23.2806 65.9202 23.6704 66.7228 24.4501C67.5484 25.2068 67.9611 26.3992 67.9611 28.0274V39H64.2462V29.2313C64.2462 28.4745 64.166 27.8898 64.0055 27.477C63.8679 27.0413 63.6156 26.7317 63.2487 26.5483C62.9048 26.3648 62.4232 26.2731 61.8041 26.2731C60.6346 26.2731 59.3389 26.6285 57.9172 27.3394V39H54.2023V23.7965L57.9172 23.4182V24.8972C59.7746 23.8195 61.5633 23.2806 63.2831 23.2806ZM80.1151 30.8135L86.4097 38.7592V39H81.9725L76.0562 31.1919V39H72.3414V15.3349L76.0562 14.9565V30.6759L82.0757 23.7621H86.1002V23.9685L80.1151 30.8135ZM101.433 29.816C101.433 30.5269 101.398 31.2951 101.329 32.1206H91.0791C91.1708 33.6341 91.5951 34.7462 92.3518 35.4571C93.1315 36.168 94.0946 36.5234 95.2412 36.5234C96.0667 36.5234 96.812 36.4202 97.477 36.2138C98.142 35.9845 98.8987 35.6291 99.7472 35.1475L101.054 37.5553C100.229 38.1286 99.3 38.5872 98.2681 38.9312C97.2591 39.2752 96.1584 39.4472 94.966 39.4472C93.4984 39.4472 92.1913 39.1835 91.0447 38.656C89.9211 38.1286 89.0268 37.2801 88.3618 36.1107C87.6968 34.9412 87.3642 33.4277 87.3642 31.5702C87.3642 29.9651 87.6509 28.5433 88.2242 27.305C88.7975 26.0438 89.6459 25.0577 90.7695 24.3469C91.8932 23.636 93.2461 23.2806 94.8284 23.2806C96.2501 23.2806 97.454 23.5672 98.4401 24.1405C99.4261 24.6908 100.171 25.4705 100.676 26.4795C101.18 27.4655 101.433 28.5777 101.433 29.816ZM94.8628 25.9635C93.8538 25.9635 93.0512 26.2731 92.455 26.8923C91.8588 27.5114 91.4575 28.3943 91.2511 29.5408H97.8553V29.4376C97.8553 28.2452 97.5802 27.3738 97.0298 26.8235C96.5024 26.2502 95.78 25.9635 94.8628 25.9635ZM112.873 23.2806C113.515 23.2806 114.18 23.3838 114.868 23.5901L114.248 27.3738C113.882 27.2362 113.538 27.133 113.217 27.0642C112.896 26.9954 112.54 26.961 112.15 26.961C111.485 26.961 110.855 27.1101 110.258 27.4082C109.685 27.7063 109.112 28.2681 108.539 29.0937V39H104.824V23.7621L108.539 23.4182V25.5852C109.089 24.8284 109.731 24.2552 110.465 23.8653C111.222 23.4755 112.024 23.2806 112.873 23.2806ZM115.599 39.3784C115.163 39.3784 114.75 39.2637 114.36 39.0344C113.993 38.828 113.695 38.5414 113.466 38.1745C113.26 37.8076 113.156 37.4063 113.156 36.9706C113.156 36.5349 113.26 36.1336 113.466 35.7667C113.695 35.3998 113.993 35.1131 114.36 34.9068C114.75 34.6774 115.163 34.5628 115.599 34.5628C116.034 34.5628 116.436 34.6774 116.802 34.9068C117.192 35.1131 117.49 35.3998 117.697 35.7667C117.926 36.1336 118.041 36.5349 118.041 36.9706C118.041 37.4063 117.926 37.8076 117.697 38.1745C117.49 38.5414 117.192 38.828 116.802 39.0344C116.436 39.2637 116.034 39.3784 115.599 39.3784Z" fill="black"/>
<defs>
<linearGradient id="paint0_linear_655_1044" x1="12.4707" y1="25.2285" x2="12.4707" y2="41.311" gradientUnits="userSpaceOnUse">
<stop stop-color="#C56BE3"/>
<stop offset="1" stop-color="#1F83D5"/>
</linearGradient>
<linearGradient id="paint1_linear_655_1044" x1="3.36328" y1="33.2698" x2="21.578" y2="33.2698" gradientUnits="userSpaceOnUse">
<stop stop-color="#FFE259"/>
<stop offset="1" stop-color="#FFA751"/>
</linearGradient>
<linearGradient id="paint2_linear_655_1044" x1="12.5159" y1="13" x2="12.5159" y2="31.4743" gradientUnits="userSpaceOnUse">
<stop stop-color="#C56BE3"/>
<stop offset="1" stop-color="#1F83D5"/>
</linearGradient>
<linearGradient id="paint3_linear_655_1044" x1="3.36328" y1="22.2371" x2="21.6684" y2="22.2371" gradientUnits="userSpaceOnUse">
<stop stop-color="#FFE259"/>
<stop offset="1" stop-color="#FFA751"/>
</linearGradient>
<linearGradient id="paint4_linear_655_1044" x1="5.51268" y1="33.2051" x2="5.51268" y2="41.19" gradientUnits="userSpaceOnUse">
<stop stop-color="#ED1CAE"/>
<stop offset="0.31" stop-color="#80206D"/>
<stop offset="0.7" stop-color="#47224B"/>
<stop offset="1" stop-color="#1B2431"/>
</linearGradient>
<linearGradient id="paint5_linear_655_1044" x1="5.51268" y1="33.2051" x2="5.51268" y2="41.19" gradientUnits="userSpaceOnUse">
<stop stop-color="#C56BE3"/>
<stop offset="1" stop-color="#1F83D5"/>
</linearGradient>
<linearGradient id="paint6_linear_655_1044" x1="0" y1="37.1975" x2="11.0254" y2="37.1975" gradientUnits="userSpaceOnUse">
<stop stop-color="#FFE259"/>
<stop offset="1" stop-color="#FFA751"/>
</linearGradient>
<linearGradient id="paint7_linear_655_1044" x1="6.61522" y1="22.5586" x2="6.61522" y2="13.0009" gradientUnits="userSpaceOnUse">
<stop stop-color="#ED1CAE"/>
<stop offset="0.31" stop-color="#80206D"/>
<stop offset="0.7" stop-color="#47224B"/>
<stop offset="1" stop-color="#1B2431"/>
</linearGradient>
<linearGradient id="paint8_linear_655_1044" x1="6.61522" y1="22.5586" x2="6.61522" y2="13.0009" gradientUnits="userSpaceOnUse">
<stop stop-color="#C56BE3"/>
<stop offset="1" stop-color="#1F83D5"/>
</linearGradient>
<linearGradient id="paint9_linear_655_1044" x1="0" y1="17.7797" x2="13.2304" y2="17.7797" gradientUnits="userSpaceOnUse">
<stop stop-color="#FFE259"/>
<stop offset="1" stop-color="#FFA751"/>
</linearGradient>
</defs>
</svg>
