<svg width="6" height="10" viewBox="0 0 6 10" fill="none" xmlns="http://www.w3.org/2000/svg">
<path d="M0.836491 8.41959C0.795013 8.46348 0.762587 8.51512 0.741063 8.57154C0.719539 8.62797 0.70934 8.68808 0.711047 8.74845C0.712755 8.80881 0.726336 8.86825 0.751015 8.92337C0.775694 8.97849 0.810988 9.02821 0.854882 9.06968C0.898775 9.11116 0.950408 9.14359 1.00683 9.16511C1.06326 9.18664 1.12337 9.19684 1.18374 9.19513C1.2441 9.19342 1.30354 9.17984 1.35866 9.15516C1.41378 9.13048 1.4635 9.09519 1.50498 9.05129L5.4129 4.91349C5.49361 4.82813 5.53857 4.71511 5.53857 4.59764C5.53857 4.48016 5.49361 4.36715 5.4129 4.28178L1.50498 0.143519C1.46377 0.0986652 1.41407 0.0624447 1.35874 0.0369625C1.30342 0.0114813 1.24359 -0.00275421 1.18272 -0.00491714C1.12185 -0.00707912 1.06116 0.00287437 1.00417 0.0243664C0.947181 0.0458574 0.895029 0.0784578 0.850745 0.120275C0.806461 0.162092 0.770927 0.212292 0.746208 0.267958C0.721489 0.323623 0.708076 0.383646 0.70675 0.444539C0.705424 0.505432 0.71621 0.565982 0.738483 0.622671C0.760756 0.67936 0.79407 0.731059 0.836491 0.774764L4.4465 4.59764L0.836491 8.41959Z" fill="white"/>
</svg>
