<svg width="29" height="30" viewBox="0 0 29 30" fill="none" xmlns="http://www.w3.org/2000/svg">
<path d="M13.6215 24.7601C13.5124 24.8754 13.4272 25.0111 13.3706 25.1594C13.3141 25.3077 13.2873 25.4657 13.2918 25.6244C13.2962 25.783 13.3319 25.9392 13.3968 26.0841C13.4617 26.229 13.5544 26.3596 13.6698 26.4687C13.7851 26.5777 13.9209 26.6629 14.0691 26.7195C14.2174 26.776 14.3754 26.8028 14.5341 26.7983C14.6927 26.7939 14.849 26.7582 14.9938 26.6933C15.1387 26.6284 15.2694 26.5357 15.3784 26.4203L25.6492 15.5453C25.8613 15.321 25.9795 15.0239 25.9795 14.7152C25.9795 14.4065 25.8613 14.1094 25.6492 13.8851L15.3784 3.00886C15.2701 2.89098 15.1394 2.79578 14.994 2.72881C14.8486 2.66184 14.6914 2.62442 14.5314 2.61874C14.3714 2.61306 14.2119 2.63922 14.0622 2.6957C13.9124 2.75219 13.7753 2.83787 13.6589 2.94777C13.5425 3.05767 13.4491 3.18961 13.3842 3.33591C13.3192 3.48221 13.284 3.63996 13.2805 3.8C13.277 3.96004 13.3053 4.11918 13.3639 4.26817C13.4224 4.41716 13.51 4.55304 13.6215 4.6679L23.1093 14.7152L13.6215 24.7601Z" fill="white"/>
</svg>
