<svg width="26" height="25" viewBox="0 0 26 25" fill="none" xmlns="http://www.w3.org/2000/svg">
<path d="M18.009 21.9544H7.71064C7.28841 21.9544 6.93826 21.6042 6.93826 21.182C6.93826 20.7598 7.28841 20.4096 7.71064 20.4096H18.009C20.9544 20.4096 22.3859 18.9781 22.3859 16.0328V8.82392C22.3859 5.87858 20.9544 4.4471 18.009 4.4471H7.71064C4.7653 4.4471 3.33382 5.87858 3.33382 8.82392C3.33382 9.24616 2.98368 9.5963 2.56144 9.5963C2.13921 9.5963 1.78906 9.24616 1.78906 8.82392C1.78906 5.06501 3.95173 2.90234 7.71064 2.90234H18.009C21.768 2.90234 23.9306 5.06501 23.9306 8.82392V16.0328C23.9306 19.7917 21.768 21.9544 18.009 21.9544Z" fill="#9D9D9D"/>
<path d="M12.8599 13.3244C11.9948 13.3244 11.1195 13.0567 10.4501 12.5108L7.22669 9.93624C6.89714 9.66848 6.83536 9.18445 7.10311 8.8549C7.37087 8.52536 7.85488 8.46357 8.18443 8.73133L11.4078 11.3059C12.1905 11.9341 13.519 11.9341 14.3017 11.3059L17.5251 8.73133C17.8546 8.46357 18.3489 8.51506 18.6064 8.8549C18.8742 9.18445 18.8227 9.67878 18.4828 9.93624L15.2594 12.5108C14.6003 13.0567 13.725 13.3244 12.8599 13.3244Z" fill="#9D9D9D"/>
<path d="M8.74048 17.8358H2.56144C2.13921 17.8358 1.78906 17.4856 1.78906 17.0634C1.78906 16.6412 2.13921 16.291 2.56144 16.291H8.74048C9.16272 16.291 9.51286 16.6412 9.51286 17.0634C9.51286 17.4856 9.16272 17.8358 8.74048 17.8358Z" fill="#9D9D9D"/>
<path d="M5.65096 13.7166H2.56144C2.13921 13.7166 1.78906 13.3665 1.78906 12.9443C1.78906 12.522 2.13921 12.1719 2.56144 12.1719H5.65096C6.0732 12.1719 6.42334 12.522 6.42334 12.9443C6.42334 13.3665 6.0732 13.7166 5.65096 13.7166Z" fill="#9D9D9D"/>
</svg>
