<svg width="18" height="18" viewBox="0 0 18 18" fill="none" xmlns="http://www.w3.org/2000/svg">
<path fill-rule="evenodd" clip-rule="evenodd" d="M9.09313 -0.00390625C6.78662 -0.00390625 6.49716 0.00649887 5.59126 0.0490321C4.68713 0.0917479 4.06999 0.239428 3.52998 0.45611C2.9714 0.679911 2.49758 0.979287 2.02552 1.4665C1.5531 1.95353 1.26293 2.44239 1.04531 3.01851C0.834754 3.57582 0.691438 4.21272 0.650743 5.14517C0.610225 6.0798 0.599609 6.37863 0.599609 8.7583C0.599609 11.138 0.609872 11.4357 0.65092 12.3703C0.6925 13.3031 0.835639 13.9399 1.04548 14.497C1.26258 15.0733 1.55275 15.5622 2.02499 16.0492C2.49687 16.5366 2.9707 16.8367 3.52892 17.0605C4.06928 17.2772 4.6866 17.4249 5.59055 17.4676C6.49645 17.5101 6.78574 17.5205 9.09207 17.5205C11.3988 17.5205 11.6873 17.5101 12.5932 17.4676C13.4974 17.4249 14.1152 17.2772 14.6556 17.0605C15.214 16.8367 15.6871 16.5366 16.159 16.0492C16.6314 15.5622 16.9216 15.0733 17.1392 14.4972C17.348 13.9399 17.4913 13.303 17.5337 12.3705C17.5744 11.4359 17.5851 11.138 17.5851 8.7583C17.5851 6.37863 17.5744 6.07999 17.5337 5.14535C17.4913 4.21254 17.348 3.57582 17.1392 3.01869C16.9216 2.44239 16.6314 1.95353 16.159 1.4665C15.6866 0.979104 15.2141 0.679729 14.655 0.45611C14.1136 0.239428 13.4961 0.0917479 12.592 0.0490321C11.6861 0.00649887 11.3977 -0.00390625 9.09048 -0.00390625H9.09313ZM8.33132 1.57504C8.55744 1.57467 8.80975 1.57504 9.0932 1.57504C11.3608 1.57504 11.6295 1.58343 12.525 1.62542C13.3531 1.66448 13.8025 1.80724 14.1018 1.92717C14.4982 2.08598 14.7807 2.27583 15.0778 2.58251C15.375 2.88919 15.5591 3.18126 15.7133 3.59016C15.8296 3.89866 15.9681 4.36233 16.0058 5.21665C16.0465 6.14033 16.0554 6.4178 16.0554 8.75621C16.0554 11.0946 16.0465 11.3721 16.0058 12.2958C15.968 13.1501 15.8296 13.6138 15.7133 13.9223C15.5594 14.3312 15.375 14.6223 15.0778 14.9288C14.7806 15.2355 14.4983 15.4253 14.1018 15.5842C13.8028 15.7046 13.3531 15.847 12.525 15.8861C11.6297 15.9281 11.3608 15.9372 9.0932 15.9372C6.82544 15.9372 6.55668 15.9281 5.66139 15.8861C4.83334 15.8467 4.38393 15.7039 4.08438 15.584C3.68805 15.4252 3.40496 15.2353 3.10771 14.9286C2.81046 14.622 2.62645 14.3306 2.47216 13.9215C2.35592 13.613 2.21738 13.1494 2.17969 12.295C2.139 11.3714 2.13086 11.0939 2.13086 8.75402C2.13086 6.41415 2.139 6.13814 2.17969 5.21446C2.21756 4.36014 2.35592 3.89647 2.47216 3.58761C2.6261 3.1787 2.81046 2.88663 3.10771 2.57995C3.40496 2.27328 3.68805 2.08343 4.08438 1.92425C4.38375 1.80377 4.83334 1.66138 5.66139 1.62213C6.44485 1.58562 6.74847 1.57467 8.33132 1.57285V1.57504ZM13.6266 3.03011C13.0639 3.03011 12.6074 3.50053 12.6074 4.08121C12.6074 4.66171 13.0639 5.13268 13.6266 5.13268C14.1892 5.13268 14.6457 4.66171 14.6457 4.08121C14.6457 3.50072 14.1892 3.02975 13.6266 3.02975V3.03011ZM9.09383 4.25794C6.68524 4.25794 4.73242 6.2727 4.73242 8.7577C4.73242 11.2427 6.68524 13.2565 9.09383 13.2565C11.5024 13.2565 13.4545 11.2427 13.4545 8.7577C13.4545 6.2727 11.5023 4.25794 9.09366 4.25794H9.09383ZM9.09461 5.83776C10.658 5.83776 11.9255 7.14534 11.9255 8.7585C11.9255 10.3715 10.658 11.6792 9.09461 11.6792C7.53105 11.6792 6.26367 10.3715 6.26367 8.7585C6.26367 7.14534 7.53105 5.83776 9.09461 5.83776Z" fill="#FABB18"/>
</svg>
