<svg width="299" height="134" viewBox="0 0 299 134" fill="none" xmlns="http://www.w3.org/2000/svg">
<path d="M58.2827 66.333L9.09277 36.7617V55.5416L58.2827 85.1129V66.333Z" fill="white"/>
<path d="M58.5268 0L9.09277 36.762V55.5419L58.5268 18.7799V0Z" fill="white"/>
<path d="M0 84.7524H29.7746L0 60.7461V84.7524Z" fill="white"/>
<path d="M0 0.003479L35.7296 0.003479L0 28.7383L0 0.003479Z" fill="white"/>
<path d="M80.611 76.9144H107.498V85.5566H70.6593V28.9891H80.611V76.9144ZM119.165 39.901C118.059 39.901 117.012 39.6392 116.022 39.1154C115.091 38.5334 114.335 37.7768 113.753 36.8457C113.171 35.8563 112.88 34.8088 112.88 33.703C112.88 32.5973 113.171 31.5789 113.753 30.6477C114.335 29.6584 115.091 28.8727 116.022 28.2907C117.012 27.7087 118.059 27.4178 119.165 27.4178C120.329 27.4178 121.406 27.7087 122.395 28.2907C123.384 28.8727 124.17 29.6584 124.752 30.6477C125.334 31.5789 125.625 32.5973 125.625 33.703C125.625 34.8088 125.334 35.8563 124.752 36.8457C124.17 37.7768 123.384 38.5334 122.395 39.1154C121.406 39.6392 120.329 39.901 119.165 39.901ZM114.626 85.5566V46.972L124.053 46.0117V85.5566H114.626ZM158.558 45.6625C162.341 45.6625 165.25 46.6519 167.287 48.6306C169.382 50.5511 170.43 53.5773 170.43 57.7093V85.5566H161.002V60.7647C161.002 58.8442 160.798 57.3602 160.391 56.3126C160.042 55.2069 159.402 54.4212 158.47 53.9556C157.598 53.4901 156.375 53.2573 154.804 53.2573C151.836 53.2573 148.548 54.1593 144.94 55.9634V85.5566H135.512V46.972L144.94 46.0117V49.7654C149.654 47.0302 154.193 45.6625 158.558 45.6625ZM201.275 64.7803L217.25 84.9456V85.5566H205.989L190.974 65.7405V85.5566H181.547V25.4973L190.974 24.537V64.4311L206.251 46.8847H216.465V47.4085L201.275 64.7803ZM255.377 62.2487C255.377 64.0528 255.289 66.0024 255.115 68.0975H229.101C229.334 71.9385 230.41 74.7611 232.331 76.5652C234.309 78.3693 236.754 79.2714 239.664 79.2714C241.759 79.2714 243.65 79.0095 245.338 78.4857C247.025 77.9037 248.946 77.0017 251.099 75.7795L254.417 81.8902C252.321 83.3452 249.964 84.5091 247.346 85.382C244.785 86.255 241.991 86.6915 238.965 86.6915C235.241 86.6915 231.923 86.0222 229.013 84.6837C226.162 83.3452 223.892 81.1919 222.204 78.2238C220.517 75.2558 219.673 71.4148 219.673 66.7008C219.673 62.627 220.4 59.0188 221.855 55.8761C223.31 52.6753 225.463 50.1728 228.315 48.3687C231.167 46.5646 234.6 45.6625 238.616 45.6625C242.224 45.6625 245.28 46.39 247.782 47.8449C250.285 49.2417 252.176 51.2204 253.456 53.781C254.737 56.2835 255.377 59.1061 255.377 62.2487ZM238.703 52.4716C236.143 52.4716 234.106 53.2573 232.593 54.8286C231.079 56.3999 230.061 58.6405 229.537 61.5503H246.298V61.2885C246.298 58.2622 245.6 56.0507 244.203 54.654C242.864 53.1991 241.031 52.4716 238.703 52.4716ZM284.41 45.6625C286.04 45.6625 287.727 45.9244 289.473 46.4482L287.902 56.0507C286.971 55.7015 286.098 55.4397 285.283 55.2651C284.468 55.0905 283.566 55.0032 282.577 55.0032C280.889 55.0032 279.289 55.3815 277.776 56.138C276.321 56.8946 274.866 58.3204 273.411 60.4155V85.5566H263.983V46.8847L273.411 46.0117V51.5114C274.808 49.5908 276.437 48.1359 278.299 47.1466C280.22 46.1572 282.257 45.6625 284.41 45.6625ZM291.328 86.5169C290.222 86.5169 289.175 86.2259 288.186 85.6439C287.254 85.1202 286.498 84.3927 285.916 83.4615C285.392 82.5304 285.13 81.5119 285.13 80.4062C285.13 79.3005 285.392 78.282 285.916 77.3509C286.498 76.4197 287.254 75.6922 288.186 75.1685C289.175 74.5865 290.222 74.2955 291.328 74.2955C292.434 74.2955 293.452 74.5865 294.384 75.1685C295.373 75.6922 296.129 76.4197 296.653 77.3509C297.235 78.282 297.526 79.3005 297.526 80.4062C297.526 81.5119 297.235 82.5304 296.653 83.4615C296.129 84.3927 295.373 85.1202 294.384 85.6439C293.452 86.2259 292.434 86.5169 291.328 86.5169Z" fill="white"/>
</svg>
