<svg width="21" height="16" viewBox="0 0 21 16" fill="none" xmlns="http://www.w3.org/2000/svg">
<path d="M5.49805 4.99805L9.24805 7.99805C9.60277 8.28205 10.0436 8.4368 10.498 8.4368C10.9525 8.4368 11.3933 8.28205 11.748 7.99805L15.498 4.99805M19.498 12.998V2.99805C19.498 2.46761 19.2873 1.95891 18.9123 1.58383C18.5372 1.20876 18.0285 0.998047 17.498 0.998047H3.49805C2.96761 0.998047 2.45891 1.20876 2.08383 1.58383C1.70876 1.95891 1.49805 2.46761 1.49805 2.99805V12.998C1.49805 13.5285 1.70876 14.0372 2.08383 14.4123C2.45891 14.7873 2.96761 14.998 3.49805 14.998H17.498C18.0285 14.998 18.5372 14.7873 18.9123 14.4123C19.2873 14.0372 19.498 13.5285 19.498 12.998Z" stroke="black" stroke-width="1.2" stroke-linecap="round" stroke-linejoin="round"/>
</svg>
