<svg width="22" height="18" viewBox="0 0 22 18" fill="none" xmlns="http://www.w3.org/2000/svg">
<path fill-rule="evenodd" clip-rule="evenodd" d="M10.6422 4.65786L10.6868 5.41584L9.94421 5.32303C7.24127 4.96724 4.8799 3.76066 2.87496 1.73422L1.89477 0.72874L1.6423 1.47125C1.10765 3.12643 1.44923 4.87443 2.56308 6.05007C3.15714 6.69977 3.02348 6.79258 1.99873 6.40586C1.6423 6.28211 1.33042 6.18929 1.30072 6.2357C1.19676 6.34398 1.55319 7.75166 1.83537 8.30854C2.2215 9.08199 3.00863 9.83997 3.87001 10.2886L4.59772 10.6444L3.73634 10.6598C2.90467 10.6598 2.87496 10.6753 2.96407 11.0001C3.2611 12.0056 4.43436 13.073 5.74128 13.5371L6.66206 13.8619L5.86009 14.3569C4.67198 15.0685 3.27595 15.4707 1.87992 15.5016C1.21161 15.5171 0.662109 15.579 0.662109 15.6254C0.662109 15.7801 2.47398 16.6463 3.52842 16.9866C6.69176 17.9921 10.4492 17.559 13.2709 15.8419C15.2759 14.6199 17.2808 12.1913 18.2164 9.83997C18.7214 8.58698 19.2263 6.29757 19.2263 5.19928C19.2263 4.4877 19.2709 4.39489 20.1026 3.5441C20.5926 3.04909 21.053 2.50767 21.1421 2.35298C21.2907 2.05907 21.2758 2.05907 20.5184 2.32205C19.256 2.78611 19.0778 2.72424 19.7016 2.02813C20.162 1.53313 20.7115 0.635926 20.7115 0.372953C20.7115 0.326546 20.4887 0.403891 20.2362 0.543112C19.9689 0.697802 19.3748 0.929837 18.9293 1.06906L18.1273 1.33203L17.3996 0.821554C16.9986 0.543112 16.4343 0.233732 16.1372 0.140918C15.3798 -0.0756475 14.2214 -0.0447096 13.5382 0.202794C11.6818 0.898899 10.5086 2.6933 10.6422 4.65786Z" fill="#FABB18"/>
</svg>
