<svg width="26" height="26" viewBox="0 0 26 26" fill="none" xmlns="http://www.w3.org/2000/svg">
<path d="M12.8601 13.8432C9.59546 13.8432 6.93848 11.1862 6.93848 7.92158C6.93848 4.65699 9.59546 2 12.8601 2C16.1246 2 18.7816 4.65699 18.7816 7.92158C18.7816 11.1862 16.1246 13.8432 12.8601 13.8432ZM12.8601 3.54476C10.4502 3.54476 8.48324 5.51175 8.48324 7.92158C8.48324 10.3314 10.4502 12.2984 12.8601 12.2984C15.2699 12.2984 17.2369 10.3314 17.2369 7.92158C17.2369 5.51175 15.2699 3.54476 12.8601 3.54476Z" fill="#8F8F8F"/>
<path d="M21.7062 24.1423C21.284 24.1423 20.9339 23.7922 20.9339 23.3699C20.9339 19.817 17.3088 16.9334 12.8599 16.9334C8.411 16.9334 4.78597 19.817 4.78597 23.3699C4.78597 23.7922 4.43583 24.1423 4.01359 24.1423C3.59136 24.1423 3.24121 23.7922 3.24121 23.3699C3.24121 18.9725 7.55624 15.3887 12.8599 15.3887C18.1636 15.3887 22.4786 18.9725 22.4786 23.3699C22.4786 23.7922 22.1285 24.1423 21.7062 24.1423Z" fill="#8F8F8F"/>
</svg>
