<svg width="358" height="310" viewBox="0 0 358 310" fill="none" xmlns="http://www.w3.org/2000/svg">
<path d="M343.541 0H14.4585C6.47331 0 0 6.47331 0 14.4585V234.541C0 242.527 6.47332 249 14.4585 249H119.832C127.817 249 134.291 255.473 134.291 263.459V295.541C134.291 303.527 140.764 310 148.749 310H343.541C351.527 310 358 303.527 358 295.541V14.4585C358 6.47331 351.527 0 343.541 0Z" fill="#FABB18"/>
<path d="M343.541 0H14.4585C6.47331 0 0 6.47331 0 14.4585V234.541C0 242.527 6.47332 249 14.4585 249H119.832C127.817 249 134.291 255.473 134.291 263.459V295.541C134.291 303.527 140.764 310 148.749 310H343.541C351.527 310 358 303.527 358 295.541V14.4585C358 6.47331 351.527 0 343.541 0Z" fill="url(#paint0_linear_549_2143)"/>
<defs>
<linearGradient id="paint0_linear_549_2143" x1="0" y1="155" x2="358" y2="155" gradientUnits="userSpaceOnUse">
<stop stop-color="#FFE259"/>
<stop offset="1" stop-color="#FFA751"/>
</linearGradient>
</defs>
</svg>
