<svg width="24" height="18" viewBox="0 0 24 18" fill="none" xmlns="http://www.w3.org/2000/svg">
<path fill-rule="evenodd" clip-rule="evenodd" d="M23.2106 2.73259C22.9388 1.6554 22.138 0.807163 21.1212 0.519282C19.2784 -0.00390625 11.8884 -0.00390625 11.8884 -0.00390625C11.8884 -0.00390625 4.49833 -0.00390625 2.65542 0.519282C1.63857 0.807163 0.83776 1.6554 0.56599 2.73259C0.0722656 4.68486 0.0722656 8.7583 0.0722656 8.7583C0.0722656 8.7583 0.0722656 12.8316 0.56599 14.784C0.83776 15.8612 1.63857 16.7094 2.65542 16.9975C4.49833 17.5205 11.8884 17.5205 11.8884 17.5205C11.8884 17.5205 19.2784 17.5205 21.1212 16.9975C22.138 16.7094 22.9388 15.8612 23.2106 14.784C23.7044 12.8316 23.7044 8.7583 23.7044 8.7583C23.7044 8.7583 23.7044 4.68486 23.2106 2.73259Z" fill="#FABB18"/>
<path fill-rule="evenodd" clip-rule="evenodd" d="M9.67383 12.9494V5.33008L15.5819 9.13988L9.67383 12.9494Z" fill="white"/>
</svg>
