<svg width="132" height="51" viewBox="0 0 132 51" fill="none" xmlns="http://www.w3.org/2000/svg">
<path d="M21.578 21.1658L3.36328 11.7305V17.7226L21.578 27.158V21.1658Z" fill="url(#paint0_linear_549_1371)"/>
<path d="M21.578 21.1658L3.36328 11.7305V17.7226L21.578 27.158V21.1658Z" fill="url(#paint1_linear_549_1371)"/>
<path d="M21.6684 0L3.36328 11.7297V17.7218L21.6684 5.99213V0Z" fill="url(#paint2_linear_549_1371)"/>
<path d="M21.6684 0L3.36328 11.7297V17.7218L21.6684 5.99213V0Z" fill="url(#paint3_linear_549_1371)"/>
<path d="M0 27.0425H11.0254L0 19.3828V27.0425Z" fill="#1B2431"/>
<path d="M0 27.0425H11.0254L0 19.3828V27.0425Z" fill="url(#paint4_linear_549_1371)"/>
<path d="M0 0.00146103L13.2304 0.00146103L0 9.16992L0 0.00146103Z" fill="white"/>
<path d="M0 0.00146103L13.2304 0.00146103L0 9.16992L0 0.00146103Z" fill="url(#paint5_linear_549_1371)"/>
<path d="M31.0796 21.5127H41.6739V24.918H27.1583V2.62871H31.0796V21.5127ZM46.271 6.92834C45.8353 6.92834 45.4225 6.82515 45.0327 6.61876C44.6658 6.38945 44.3677 6.09134 44.1384 5.72444C43.909 5.33461 43.7944 4.92184 43.7944 4.48615C43.7944 4.05045 43.909 3.64916 44.1384 3.28226C44.3677 2.89242 44.6658 2.58285 45.0327 2.35354C45.4225 2.12422 45.8353 2.00957 46.271 2.00957C46.7296 2.00957 47.1538 2.12422 47.5437 2.35354C47.9335 2.58285 48.2431 2.89242 48.4724 3.28226C48.7017 3.64916 48.8164 4.05045 48.8164 4.48615C48.8164 4.92184 48.7017 5.33461 48.4724 5.72444C48.2431 6.09134 47.9335 6.38945 47.5437 6.61876C47.1538 6.82515 46.7296 6.92834 46.271 6.92834ZM44.4823 24.918V9.71449L48.1972 9.33613V24.918H44.4823ZM61.7929 9.19854C63.2834 9.19854 64.43 9.58837 65.2326 10.368C66.0581 11.1248 66.4709 12.3172 66.4709 13.9453V24.918H62.756V15.1492C62.756 14.3925 62.6757 13.8077 62.5152 13.395C62.3776 12.9593 62.1254 12.6497 61.7585 12.4663C61.4145 12.2828 60.933 12.1911 60.3138 12.1911C59.1443 12.1911 57.8487 12.5465 56.427 13.2574V24.918H52.7121V9.71449L56.427 9.33613V10.8152C58.2844 9.73743 60.073 9.19854 61.7929 9.19854ZM78.6248 16.7315L84.9195 24.6772V24.918H80.4823L74.566 17.1098V24.918H70.8511V1.25283L74.566 0.874464V16.5939L80.5855 9.6801H84.6099V9.88648L78.6248 16.7315ZM99.9424 15.734C99.9424 16.4448 99.908 17.213 99.8392 18.0386H89.5889C89.6806 19.552 90.1048 20.6642 90.8616 21.3751C91.6412 22.0859 92.6044 22.4414 93.7509 22.4414C94.5765 22.4414 95.3217 22.3382 95.9867 22.1318C96.6517 21.9025 97.4085 21.5471 98.2569 21.0655L99.564 23.4733C98.7385 24.0466 97.8098 24.5052 96.7779 24.8492C95.7689 25.1931 94.6682 25.3651 93.4757 25.3651C92.0081 25.3651 90.7011 25.1014 89.5545 24.574C88.4309 24.0466 87.5365 23.1981 86.8715 22.0286C86.2065 20.8591 85.874 19.3457 85.874 17.4882C85.874 15.883 86.1607 14.4613 86.7339 13.223C87.3072 11.9618 88.1557 10.9757 89.2793 10.2648C90.403 9.55397 91.7559 9.19854 93.3382 9.19854C94.7599 9.19854 95.9638 9.48518 96.9498 10.0585C97.9359 10.6088 98.6812 11.3885 99.1857 12.3975C99.6901 13.3835 99.9424 14.4957 99.9424 15.734ZM93.3726 11.8815C92.3636 11.8815 91.561 12.1911 90.9648 12.8102C90.3686 13.4294 89.9673 14.3122 89.7609 15.4588H96.3651V15.3556C96.3651 14.1632 96.0899 13.2918 95.5396 12.7414C95.0121 12.1681 94.2898 11.8815 93.3726 11.8815ZM111.382 9.19854C112.024 9.19854 112.689 9.30173 113.377 9.50811L112.758 13.2918C112.391 13.1542 112.047 13.051 111.726 12.9822C111.405 12.9134 111.05 12.879 110.66 12.879C109.995 12.879 109.364 13.0281 108.768 13.3262C108.195 13.6243 107.622 14.1861 107.048 15.0116V24.918H103.333V9.6801L107.048 9.33613V11.5031C107.599 10.7464 108.241 10.1731 108.975 9.78329C109.731 9.39346 110.534 9.19854 111.382 9.19854ZM114.108 25.2963C113.673 25.2963 113.26 25.1817 112.87 24.9524C112.503 24.746 112.205 24.4593 111.976 24.0924C111.769 23.7255 111.666 23.3242 111.666 22.8885C111.666 22.4529 111.769 22.0516 111.976 21.6847C112.205 21.3177 112.503 21.0311 112.87 20.8247C113.26 20.5954 113.673 20.4808 114.108 20.4808C114.544 20.4808 114.945 20.5954 115.312 20.8247C115.702 21.0311 116 21.3177 116.207 21.6847C116.436 22.0516 116.55 22.4529 116.55 22.8885C116.55 23.3242 116.436 23.7255 116.207 24.0924C116 24.4593 115.702 24.746 115.312 24.9524C114.945 25.1817 114.544 25.2963 114.108 25.2963Z" fill="white"/>
<path d="M6.89775 40.5072L5.77634 40.8246C5.70581 40.6377 5.60178 40.4561 5.46425 40.2797C5.33024 40.0999 5.14686 39.9518 4.91412 39.8354C4.68137 39.719 4.38339 39.6608 4.02016 39.6608C3.52293 39.6608 3.10857 39.7755 2.77708 40.0047C2.44912 40.2304 2.28514 40.5178 2.28514 40.8669C2.28514 41.1772 2.39799 41.4223 2.62368 41.6022C2.84938 41.782 3.20202 41.9319 3.68162 42.0518L4.88767 42.348C5.61412 42.5243 6.15543 42.7941 6.5116 43.1573C6.86777 43.517 7.04586 43.9808 7.04586 44.5485C7.04586 45.014 6.91186 45.4301 6.64385 45.7969C6.37936 46.1636 6.00908 46.4528 5.53301 46.6644C5.05694 46.876 4.50329 46.9818 3.87205 46.9818C3.04333 46.9818 2.35744 46.8019 1.81436 46.4422C1.27129 46.0825 0.927458 45.5571 0.782873 44.8659L1.96776 44.5697C2.08061 45.007 2.29396 45.3349 2.60781 45.5536C2.9252 45.7722 3.33955 45.8815 3.85089 45.8815C4.43276 45.8815 4.89472 45.7581 5.23679 45.5112C5.58238 45.2609 5.75518 44.9611 5.75518 44.612C5.75518 44.3299 5.65644 44.0936 5.45896 43.9032C5.26147 43.7092 4.9582 43.5646 4.54913 43.4694L3.19497 43.152C2.45089 42.9757 1.90429 42.7024 1.55517 42.3321C1.20957 41.9583 1.03678 41.4911 1.03678 40.9304C1.03678 40.4719 1.16549 40.0664 1.42293 39.7137C1.68388 39.3611 2.03829 39.0843 2.48615 38.8833C2.93754 38.6823 3.44888 38.5817 4.02016 38.5817C4.82419 38.5817 5.45543 38.7581 5.91387 39.1107C6.37583 39.4634 6.70379 39.9289 6.89775 40.5072ZM27.3543 38.6875V39.7455H23.1437V38.6875H27.3543ZM24.3709 36.7409H25.6193V44.485C25.6193 44.8377 25.6704 45.1022 25.7727 45.2785C25.8785 45.4513 26.0125 45.5677 26.1747 45.6276C26.3404 45.684 26.515 45.7122 26.6984 45.7122C26.8359 45.7122 26.9487 45.7052 27.0369 45.6911C27.1251 45.6735 27.1956 45.6593 27.2485 45.6488L27.5024 46.7702C27.4178 46.8019 27.2996 46.8337 27.148 46.8654C26.9964 46.9007 26.8042 46.9183 26.5714 46.9183C26.2188 46.9183 25.8732 46.8425 25.5346 46.6908C25.1996 46.5392 24.921 46.3082 24.6989 45.9979C24.4802 45.6876 24.3709 45.2961 24.3709 44.8236V36.7409ZM49.2483 43.4906V38.6875H50.4967V46.8125H49.2483V45.4372H49.1637C48.9732 45.8498 48.677 46.2007 48.275 46.4898C47.873 46.7755 47.3652 46.9183 46.7516 46.9183C46.2438 46.9183 45.7924 46.8072 45.3974 46.585C45.0024 46.3594 44.6921 46.0208 44.4664 45.5694C44.2407 45.1145 44.1279 44.5415 44.1279 43.8503V38.6875H45.3762V43.7656C45.3762 44.3581 45.542 44.8306 45.8735 45.1833C46.2085 45.5359 46.6352 45.7122 47.1536 45.7122C47.4639 45.7122 47.7795 45.6329 48.1004 45.4742C48.4249 45.3155 48.6964 45.0722 48.915 44.7442C49.1372 44.4163 49.2483 43.9984 49.2483 43.4906ZM70.7469 46.9818C70.0698 46.9818 69.4721 46.8107 68.9537 46.4687C68.4353 46.1231 68.0298 45.6364 67.7371 45.0087C67.4444 44.3775 67.298 43.6316 67.298 42.7712C67.298 41.9178 67.4444 41.1772 67.7371 40.5495C68.0298 39.9218 68.4371 39.4369 68.959 39.0948C69.4809 38.7528 70.0839 38.5817 70.7681 38.5817C71.297 38.5817 71.7149 38.6699 72.0217 38.8462C72.332 39.019 72.5683 39.2165 72.7305 39.4387C72.8963 39.6573 73.025 39.8372 73.1167 39.9782H73.2225V35.9792H74.4708V46.8125H73.2648V45.5641H73.1167C73.025 45.7122 72.8945 45.8991 72.7252 46.1248C72.556 46.347 72.3144 46.5463 72.0006 46.7226C71.6867 46.8954 71.2688 46.9818 70.7469 46.9818ZM70.9162 45.8604C71.4169 45.8604 71.8401 45.7299 72.1857 45.4689C72.5313 45.2044 72.794 44.8394 72.9739 44.374C73.1537 43.9049 73.2436 43.3636 73.2436 42.75C73.2436 42.1435 73.1555 41.6127 72.9791 41.1578C72.8028 40.6994 72.5419 40.3432 72.1963 40.0893C71.8507 39.8319 71.424 39.7032 70.9162 39.7032C70.3872 39.7032 69.9464 39.8389 69.5937 40.1105C69.2446 40.3785 68.9819 40.7435 68.8056 41.2054C68.6328 41.6639 68.5464 42.1787 68.5464 42.75C68.5464 43.3284 68.6346 43.8538 68.8109 44.3263C68.9907 44.7954 69.2552 45.1692 69.6043 45.4478C69.957 45.7228 70.3943 45.8604 70.9162 45.8604ZM91.8263 46.8125V38.6875H93.0747V46.8125H91.8263ZM92.4611 37.3334C92.2177 37.3334 92.0079 37.2505 91.8316 37.0848C91.6588 36.919 91.5724 36.7198 91.5724 36.487C91.5724 36.2543 91.6588 36.055 91.8316 35.8893C92.0079 35.7236 92.2177 35.6407 92.4611 35.6407C92.7044 35.6407 92.9124 35.7236 93.0852 35.8893C93.2616 36.055 93.3497 36.2543 93.3497 36.487C93.3497 36.7198 93.2616 36.919 93.0852 37.0848C92.9124 37.2505 92.7044 37.3334 92.4611 37.3334ZM113.558 46.9818C112.824 46.9818 112.181 46.8072 111.627 46.4581C111.077 46.109 110.647 45.6206 110.336 44.9928C110.029 44.3651 109.876 43.6316 109.876 42.7923C109.876 41.946 110.029 41.2072 110.336 40.576C110.647 39.9447 111.077 39.4545 111.627 39.1054C112.181 38.7563 112.824 38.5817 113.558 38.5817C114.291 38.5817 114.933 38.7563 115.483 39.1054C116.037 39.4545 116.467 39.9447 116.774 40.576C117.084 41.2072 117.239 41.946 117.239 42.7923C117.239 43.6316 117.084 44.3651 116.774 44.9928C116.467 45.6206 116.037 46.109 115.483 46.4581C114.933 46.8072 114.291 46.9818 113.558 46.9818ZM113.558 45.8604C114.115 45.8604 114.573 45.7175 114.933 45.4319C115.293 45.1462 115.559 44.7707 115.732 44.3052C115.904 43.8397 115.991 43.3354 115.991 42.7923C115.991 42.2493 115.904 41.7432 115.732 41.2742C115.559 40.8052 115.293 40.4261 114.933 40.1369C114.573 39.8477 114.115 39.7032 113.558 39.7032C113 39.7032 112.542 39.8477 112.182 40.1369C111.823 40.4261 111.556 40.8052 111.384 41.2742C111.211 41.7432 111.124 42.2493 111.124 42.7923C111.124 43.3354 111.211 43.8397 111.384 44.3052C111.556 44.7707 111.823 45.1462 112.182 45.4319C112.542 45.7175 113 45.8604 113.558 45.8604Z" fill="white"/>
<defs>
<linearGradient id="paint0_linear_549_1371" x1="12.4707" y1="11.7305" x2="12.4707" y2="27.158" gradientUnits="userSpaceOnUse">
<stop stop-color="#C56BE3"/>
<stop offset="1" stop-color="#1F83D5"/>
</linearGradient>
<linearGradient id="paint1_linear_549_1371" x1="12.4707" y1="11.7305" x2="12.4707" y2="27.158" gradientUnits="userSpaceOnUse">
<stop stop-color="#ED1CAE"/>
<stop offset="1" stop-color="#1B2431"/>
</linearGradient>
<linearGradient id="paint2_linear_549_1371" x1="12.5159" y1="0" x2="12.5159" y2="17.7218" gradientUnits="userSpaceOnUse">
<stop stop-color="#C56BE3"/>
<stop offset="1" stop-color="#1F83D5"/>
</linearGradient>
<linearGradient id="paint3_linear_549_1371" x1="12.5159" y1="0" x2="12.5159" y2="17.7218" gradientUnits="userSpaceOnUse">
<stop stop-color="#ED1CAE"/>
<stop offset="1" stop-color="#1B2431"/>
</linearGradient>
<linearGradient id="paint4_linear_549_1371" x1="5.51268" y1="19.3828" x2="5.51268" y2="27.0425" gradientUnits="userSpaceOnUse">
<stop stop-color="#ED1CAE"/>
<stop offset="0.31" stop-color="#80206D"/>
<stop offset="0.7" stop-color="#47224B"/>
<stop offset="1" stop-color="#1B2431"/>
</linearGradient>
<linearGradient id="paint5_linear_549_1371" x1="6.61522" y1="9.16992" x2="6.61522" y2="0.00146103" gradientUnits="userSpaceOnUse">
<stop stop-color="#ED1CAE"/>
<stop offset="0.31" stop-color="#80206D"/>
<stop offset="0.7" stop-color="#47224B"/>
<stop offset="1" stop-color="#1B2431"/>
</linearGradient>
</defs>
</svg>
